<mxfile host="app.diagrams.net" modified="2024-03-11T08:02:24.781Z" agent="Mozilla/5.0 (Macintosh; Intel Mac OS X 10_15_7) AppleWebKit/537.36 (KHTML, like Gecko) Chrome/122.0.0.0 Safari/537.36" etag="j9ZrLJrstAQ4zgYrb__D" version="24.0.2" type="github">
  <diagram id="2pUIhmt7z4SOJBWyxBwC" name="Page-1">
    <mxGraphModel dx="1781" dy="535" grid="1" gridSize="10" guides="1" tooltips="1" connect="1" arrows="1" fold="1" page="1" pageScale="1" pageWidth="827" pageHeight="1169" math="0" shadow="0">
      <root>
        <mxCell id="0" />
        <mxCell id="1" parent="0" />
        <mxCell id="4_AAo_vmlgMmhj1aewk4-7" value="" style="shape=cylinder3;whiteSpace=wrap;html=1;boundedLbl=1;backgroundOutline=1;size=23.29629629629619;fillStyle=dashed;sketch=1;curveFitting=1;jiggle=2;fillColor=#dae8fc;strokeColor=#6c8ebf;" parent="1" vertex="1">
          <mxGeometry x="560.25" y="520" width="209.75" height="210" as="geometry" />
        </mxCell>
        <mxCell id="4_AAo_vmlgMmhj1aewk4-3" value="SLS/&lt;br&gt;CDC数据源" style="strokeWidth=2;html=1;shape=mxgraph.flowchart.direct_data;whiteSpace=wrap;sketch=1;curveFitting=1;jiggle=2;fillColor=#dae8fc;strokeColor=#6c8ebf;" parent="1" vertex="1">
          <mxGeometry x="-40" y="596.5" width="110" height="85" as="geometry" />
        </mxCell>
        <mxCell id="4_AAo_vmlgMmhj1aewk4-5" value="" style="rounded=1;whiteSpace=wrap;html=1;fillStyle=dashed;sketch=1;curveFitting=1;jiggle=2;fillColor=#f8cecc;strokeColor=#b85450;" parent="1" vertex="1">
          <mxGeometry x="140" y="560" width="366" height="160" as="geometry" />
        </mxCell>
        <mxCell id="4_AAo_vmlgMmhj1aewk4-6" value="&lt;font face=&quot;Comic Sans MS&quot;&gt;SST&lt;/font&gt;" style="strokeWidth=2;html=1;shape=mxgraph.flowchart.multi-document;whiteSpace=wrap;sketch=1;curveFitting=1;jiggle=2;" parent="1" vertex="1">
          <mxGeometry x="621" y="579" width="88" height="60" as="geometry" />
        </mxCell>
        <mxCell id="4_AAo_vmlgMmhj1aewk4-11" style="edgeStyle=orthogonalEdgeStyle;rounded=0;orthogonalLoop=1;jettySize=auto;html=1;exitX=0.5;exitY=1;exitDx=0;exitDy=0;exitPerimeter=0;entryX=0.5;entryY=0;entryDx=0;entryDy=0;entryPerimeter=0;sketch=1;curveFitting=1;jiggle=2;" parent="1" source="4_AAo_vmlgMmhj1aewk4-8" target="4_AAo_vmlgMmhj1aewk4-12" edge="1">
          <mxGeometry relative="1" as="geometry">
            <mxPoint x="342" y="748.12" as="targetPoint" />
          </mxGeometry>
        </mxCell>
        <mxCell id="4_AAo_vmlgMmhj1aewk4-44" value="已存在" style="edgeLabel;html=1;align=center;verticalAlign=middle;resizable=0;points=[];rounded=0;fontFamily=Comic Sans MS;fontSize=14;fontColor=default;fillColor=none;gradientColor=none;" parent="4_AAo_vmlgMmhj1aewk4-11" vertex="1" connectable="0">
          <mxGeometry x="-0.4429" y="1" relative="1" as="geometry">
            <mxPoint as="offset" />
          </mxGeometry>
        </mxCell>
        <mxCell id="4_AAo_vmlgMmhj1aewk4-8" value="提交快照&lt;br&gt;判断UID是否存在" style="strokeWidth=2;html=1;shape=mxgraph.flowchart.decision;whiteSpace=wrap;sketch=1;curveFitting=1;jiggle=2;fontFamily=Comic Sans MS;" parent="1" vertex="1">
          <mxGeometry x="312.5" y="591.57" width="169" height="95.62" as="geometry" />
        </mxCell>
        <mxCell id="4_AAo_vmlgMmhj1aewk4-23" style="edgeStyle=orthogonalEdgeStyle;rounded=0;orthogonalLoop=1;jettySize=auto;html=1;exitX=0;exitY=0;exitDx=100;exitDy=35;exitPerimeter=0;entryX=0;entryY=0.5;entryDx=0;entryDy=0;sketch=1;curveFitting=1;jiggle=2;" parent="1" source="4_AAo_vmlgMmhj1aewk4-9" target="4_AAo_vmlgMmhj1aewk4-25" edge="1">
          <mxGeometry relative="1" as="geometry">
            <mxPoint x="810" y="677" as="targetPoint" />
            <Array as="points">
              <mxPoint x="750" y="682" />
              <mxPoint x="750" y="636" />
            </Array>
          </mxGeometry>
        </mxCell>
        <mxCell id="4_AAo_vmlgMmhj1aewk4-47" value="&lt;font style=&quot;font-size: 13px;&quot;&gt;+I -U +U -D&lt;/font&gt;" style="edgeLabel;html=1;align=center;verticalAlign=middle;resizable=0;points=[];rounded=0;fontFamily=Comic Sans MS;fontSize=17;fontColor=default;fillColor=none;gradientColor=none;" parent="4_AAo_vmlgMmhj1aewk4-23" vertex="1" connectable="0">
          <mxGeometry x="0.5028" y="3" relative="1" as="geometry">
            <mxPoint x="-11" y="2" as="offset" />
          </mxGeometry>
        </mxCell>
        <mxCell id="4_AAo_vmlgMmhj1aewk4-9" value="" style="verticalLabelPosition=bottom;verticalAlign=top;html=1;shape=mxgraph.basic.layered_rect;dx=10;outlineConnect=0;whiteSpace=wrap;sketch=1;curveFitting=1;jiggle=2;" parent="1" vertex="1">
          <mxGeometry x="614" y="646.63" width="100" height="60" as="geometry" />
        </mxCell>
        <mxCell id="4_AAo_vmlgMmhj1aewk4-10" style="edgeStyle=orthogonalEdgeStyle;rounded=0;orthogonalLoop=1;jettySize=auto;html=1;exitX=1;exitY=0.5;exitDx=0;exitDy=0;exitPerimeter=0;sketch=1;curveFitting=1;jiggle=2;entryX=0;entryY=0.5;entryDx=0;entryDy=0;" parent="1" source="4_AAo_vmlgMmhj1aewk4-3" target="H0QVdFRBuIzw1cpCaCCk-1" edge="1">
          <mxGeometry relative="1" as="geometry">
            <mxPoint x="160" y="639" as="targetPoint" />
          </mxGeometry>
        </mxCell>
        <mxCell id="4_AAo_vmlgMmhj1aewk4-12" value="&lt;font style=&quot;font-size: 17px;&quot; face=&quot;Comic Sans MS&quot;&gt;结束&lt;/font&gt;" style="strokeWidth=2;html=1;shape=mxgraph.flowchart.terminator;whiteSpace=wrap;sketch=1;curveFitting=1;jiggle=2;fillColor=#d5e8d4;strokeColor=#82b366;" parent="1" vertex="1">
          <mxGeometry x="347" y="741.26" width="100" height="60" as="geometry" />
        </mxCell>
        <mxCell id="4_AAo_vmlgMmhj1aewk4-25" value="" style="rounded=1;whiteSpace=wrap;html=1;fillStyle=dashed;sketch=1;curveFitting=1;jiggle=2;fillColor=#f8cecc;strokeColor=#b85450;" parent="1" vertex="1">
          <mxGeometry x="845" y="560" width="235" height="151.26" as="geometry" />
        </mxCell>
        <mxCell id="4_AAo_vmlgMmhj1aewk4-26" value="增量计数&lt;br&gt;当日UV+1" style="rounded=1;whiteSpace=wrap;html=1;sketch=1;curveFitting=1;jiggle=2;" parent="1" vertex="1">
          <mxGeometry x="910" y="618.13" width="120" height="60" as="geometry" />
        </mxCell>
        <mxCell id="4_AAo_vmlgMmhj1aewk4-28" value="" style="shape=cylinder3;whiteSpace=wrap;html=1;boundedLbl=1;backgroundOutline=1;size=15;fillStyle=dashed;sketch=1;curveFitting=1;jiggle=2;fillColor=#dae8fc;strokeColor=#6c8ebf;" parent="1" vertex="1">
          <mxGeometry x="1140" y="531.26" width="210" height="210" as="geometry" />
        </mxCell>
        <mxCell id="4_AAo_vmlgMmhj1aewk4-34" value="Flink" style="text;html=1;align=center;verticalAlign=middle;whiteSpace=wrap;rounded=0;fontFamily=Comic Sans MS;fontSize=17;fontStyle=1" parent="1" vertex="1">
          <mxGeometry x="275" y="561.5699999999999" width="60" height="30" as="geometry" />
        </mxCell>
        <mxCell id="4_AAo_vmlgMmhj1aewk4-36" value="+I +U -D" style="text;html=1;align=center;verticalAlign=middle;whiteSpace=wrap;rounded=0;fontFamily=Comic Sans MS;fontSize=15;fontColor=default;" parent="1" vertex="1">
          <mxGeometry x="70" y="609" width="80" height="30" as="geometry" />
        </mxCell>
        <mxCell id="4_AAo_vmlgMmhj1aewk4-45" value="&lt;font style=&quot;font-size: 12px;&quot;&gt;ChangeLog File&lt;/font&gt;" style="text;html=1;align=center;verticalAlign=middle;whiteSpace=wrap;rounded=0;fontFamily=Comic Sans MS;fontSize=17;fontColor=default;" parent="1" vertex="1">
          <mxGeometry x="634" y="656.5" width="60" height="30" as="geometry" />
        </mxCell>
        <mxCell id="4_AAo_vmlgMmhj1aewk4-48" value="&lt;b&gt;Flink&lt;/b&gt;" style="text;html=1;align=center;verticalAlign=middle;whiteSpace=wrap;rounded=0;fontFamily=Comic Sans MS;fontSize=17;" parent="1" vertex="1">
          <mxGeometry x="940" y="564.38" width="60" height="30" as="geometry" />
        </mxCell>
        <mxCell id="4_AAo_vmlgMmhj1aewk4-49" value="&lt;b&gt;Paimon中间层&lt;/b&gt;" style="text;html=1;align=center;verticalAlign=middle;whiteSpace=wrap;rounded=0;fontFamily=Comic Sans MS;fontSize=15;strokeWidth=0;" parent="1" vertex="1">
          <mxGeometry x="607.62" y="520" width="115" height="35" as="geometry" />
        </mxCell>
        <mxCell id="4_AAo_vmlgMmhj1aewk4-50" value="&lt;b&gt;Explorer&lt;/b&gt;" style="text;html=1;align=center;verticalAlign=middle;whiteSpace=wrap;rounded=0;fontFamily=Comic Sans MS;fontSize=17;" parent="1" vertex="1">
          <mxGeometry x="1215" y="565.64" width="60" height="30" as="geometry" />
        </mxCell>
        <mxCell id="4_AAo_vmlgMmhj1aewk4-51" value="双写 SST和ChangeLog" style="text;html=1;align=center;verticalAlign=middle;whiteSpace=wrap;rounded=0;fontFamily=Comic Sans MS;fontSize=12;fontColor=default;" parent="1" vertex="1">
          <mxGeometry x="545.62" y="632.5" width="68.38" height="15" as="geometry" />
        </mxCell>
        <mxCell id="4_AAo_vmlgMmhj1aewk4-52" value="&lt;font style=&quot;font-size: 12px;&quot;&gt;增量UV&lt;/font&gt;" style="edgeStyle=orthogonalEdgeStyle;rounded=0;orthogonalLoop=1;jettySize=auto;html=1;exitX=1;exitY=0.5;exitDx=0;exitDy=0;entryX=0;entryY=0.5;entryDx=0;entryDy=0;entryPerimeter=0;fontFamily=Comic Sans MS;fontSize=17;fontColor=default;sketch=1;curveFitting=1;jiggle=2;" parent="1" source="4_AAo_vmlgMmhj1aewk4-25" target="4_AAo_vmlgMmhj1aewk4-28" edge="1">
          <mxGeometry x="-0.0115" y="-16" relative="1" as="geometry">
            <mxPoint x="16" y="-16" as="offset" />
          </mxGeometry>
        </mxCell>
        <mxCell id="4_AAo_vmlgMmhj1aewk4-53" value="&lt;p style=&quot;border-color: var(--border-color); font-size: 10px; text-align: left;&quot;&gt;存储每小时的增量UV&lt;/p&gt;&lt;p style=&quot;border-color: var(--border-color); font-size: 10px; text-align: left;&quot;&gt;2024010100 UV:500&lt;/p&gt;&lt;p style=&quot;border-color: var(--border-color); font-size: 10px; text-align: left;&quot;&gt;2024010101 UV:300&lt;/p&gt;&lt;p style=&quot;border-color: var(--border-color); font-size: 10px; text-align: left;&quot;&gt;2024010102 UV:200&lt;/p&gt;&lt;p style=&quot;border-color: var(--border-color); font-size: 10px; text-align: left;&quot;&gt;&lt;span style=&quot;white-space: pre;&quot;&gt;&amp;nbsp;&amp;nbsp;&amp;nbsp;&amp;nbsp;&lt;/span&gt;&amp;nbsp; &amp;nbsp;……&lt;/p&gt;" style="rounded=1;whiteSpace=wrap;html=1;align=center;verticalAlign=middle;fontFamily=Comic Sans MS;fontSize=17;fontColor=default;fillColor=default;gradientColor=none;sketch=1;curveFitting=1;jiggle=2;" parent="1" vertex="1">
          <mxGeometry x="1175" y="605" width="140" height="120" as="geometry" />
        </mxCell>
        <mxCell id="H0QVdFRBuIzw1cpCaCCk-1" value="Local Merge&lt;div&gt;本地去重&lt;/div&gt;" style="rounded=1;whiteSpace=wrap;html=1;sketch=1;hachureGap=4;jiggle=2;curveFitting=1;" vertex="1" parent="1">
          <mxGeometry x="160" y="609" width="120" height="60" as="geometry" />
        </mxCell>
        <mxCell id="H0QVdFRBuIzw1cpCaCCk-2" style="edgeStyle=orthogonalEdgeStyle;rounded=0;sketch=1;hachureGap=4;jiggle=2;curveFitting=1;orthogonalLoop=1;jettySize=auto;html=1;exitX=1;exitY=0.5;exitDx=0;exitDy=0;entryX=0;entryY=0.5;entryDx=0;entryDy=0;entryPerimeter=0;" edge="1" parent="1" source="H0QVdFRBuIzw1cpCaCCk-1" target="4_AAo_vmlgMmhj1aewk4-8">
          <mxGeometry relative="1" as="geometry" />
        </mxCell>
        <mxCell id="H0QVdFRBuIzw1cpCaCCk-4" style="edgeStyle=orthogonalEdgeStyle;rounded=0;sketch=1;hachureGap=4;jiggle=2;curveFitting=1;orthogonalLoop=1;jettySize=auto;html=1;exitX=1;exitY=0.5;exitDx=0;exitDy=0;exitPerimeter=0;entryX=0;entryY=0.5;entryDx=0;entryDy=0;entryPerimeter=0;" edge="1" parent="1" source="4_AAo_vmlgMmhj1aewk4-8" target="4_AAo_vmlgMmhj1aewk4-6">
          <mxGeometry relative="1" as="geometry">
            <Array as="points">
              <mxPoint x="540" y="639" />
              <mxPoint x="540" y="609" />
            </Array>
          </mxGeometry>
        </mxCell>
        <mxCell id="H0QVdFRBuIzw1cpCaCCk-5" style="edgeStyle=orthogonalEdgeStyle;rounded=0;sketch=1;hachureGap=4;jiggle=2;curveFitting=1;orthogonalLoop=1;jettySize=auto;html=1;exitX=1;exitY=0.5;exitDx=0;exitDy=0;exitPerimeter=0;entryX=0;entryY=0;entryDx=0;entryDy=25;entryPerimeter=0;" edge="1" parent="1" source="4_AAo_vmlgMmhj1aewk4-8" target="4_AAo_vmlgMmhj1aewk4-9">
          <mxGeometry relative="1" as="geometry">
            <Array as="points">
              <mxPoint x="540" y="639" />
              <mxPoint x="540" y="672" />
            </Array>
          </mxGeometry>
        </mxCell>
        <mxCell id="H0QVdFRBuIzw1cpCaCCk-6" value="不存在" style="edgeLabel;html=1;align=center;verticalAlign=middle;resizable=0;points=[];sketch=1;hachureGap=4;jiggle=2;curveFitting=1;fontFamily=Comic Sans MS;fontSize=14;" vertex="1" connectable="0" parent="H0QVdFRBuIzw1cpCaCCk-5">
          <mxGeometry x="-0.6985" relative="1" as="geometry">
            <mxPoint x="4" as="offset" />
          </mxGeometry>
        </mxCell>
      </root>
    </mxGraphModel>
  </diagram>
</mxfile>
